<?xml version="1.0" encoding="utf-8"?>
<!-- Generator: Adobe Illustrator 23.1.1, SVG Export Plug-In . SVG Version: 6.00 Build 0)  -->
<svg version="1.1" id="レイヤー_1" xmlns="http://www.w3.org/2000/svg" xmlns:xlink="http://www.w3.org/1999/xlink" x="0px"
	 y="0px" viewBox="0 0 316 43" style="enable-background:new 0 0 316 43;" xml:space="preserve">
<style type="text/css">
	.st0{fill-rule:evenodd;clip-rule:evenodd;fill:#847121;stroke:#847121;stroke-width:1.5;stroke-linejoin:round;}
</style>
<path id="長方形_865" class="st0" d="M98.6,28.8c-0.3,0-0.7-0.2-0.9-0.4c-0.6,3.6-1.4,7.1-2.4,10.6l0,0c0,0,0.1,0,0.1,0
	c0.2,0,0.5,0,0.7,0.1c0.4,0.1,0.7,0.3,1,0.6l0,0c1-3.6,1.8-7.3,2.4-11C99.1,28.9,98.8,28.9,98.6,28.8 M106.8,28.5
	c-0.2,0-0.5,0-0.7,0c0.2,1.9,0.6,3.7,1,5.6c0.2-0.2,0.5-0.3,0.8-0.3c0.3-0.1,0.6-0.1,0.9,0c-0.4-1.7-0.8-3.9-1.1-5.6
	C107.5,28.4,107.1,28.5,106.8,28.5 M106.5,18.2c-0.3,0.1-0.6,0.2-0.9,0.2l1.4,3.3l-5.8,0.6l0.2-0.3c1.6-2.7,5.4-9.2,7-12.2
	c-0.3,0-0.6-0.1-0.9-0.2c-0.4-0.2-0.8-0.4-1.1-0.8l-4.6,8.3l-2.8-2l0.1-0.1c0.5-1,1.8-3.6,2.7-5.2l0-0.1c1.1-2.1,2.3-4.3,2.9-5.7
	l-0.1,0c-0.3,0-0.6-0.1-0.9-0.2c-0.3-0.1-0.6-0.4-0.8-0.6L97.3,14l-1.8-1l0,0c-0.1,0.4-0.3,0.8-0.5,1.2c-0.1,0.2-0.3,0.4-0.5,0.6
	l0,0c2.1,1.1,4.1,2.4,6,3.8l0.2,0.2l-2.1,3.8l-0.1,0L93.6,23c0,0.1,0,0.1,0.1,0.2c0.1,0.2,0.2,0.5,0.2,0.7c0,0.3,0,0.6,0,0.9
	c0,0.1,0,0.2,0,0.2c0.8-0.1,4.4-0.6,6.5-0.9l1.5-0.2v15.8c0.3-0.1,0.6-0.2,0.9-0.2c0.4,0,0.7,0.1,1,0.2V23.7l3.7-0.5l1.2,2.9
	c0.2-0.2,0.5-0.4,0.8-0.5c0.3-0.1,0.7-0.2,1-0.2c-0.7-1.8-2.1-5.3-3.2-7.7C107,17.9,106.8,18.1,106.5,18.2 M115,37v-15h7.4l0,0.3
	c0.1,3.8,0.7,7.6,1.8,11.2c0,0.1,0.1,0.3,0.2,0.4l0.1,0.3L115,37z M115,9.6l7-2.1l0.3,12.5H115V9.6z M132.4,33.4
	c-0.3-0.2-0.7-0.4-0.9-0.7c0,0-0.7,4.4-1.8,4.4c-1.7,0-4.9-4.3-5.2-14.9l0-0.3h6.9c-0.2-0.3-0.2-0.6-0.2-0.9c0-0.3,0.1-0.6,0.2-0.9
	h-6.9c0,0,0-2.5-0.1-4.7c-0.1-2.7-0.1-8.4-0.1-8.4s6-2,6.4-2.1c-0.6-0.3-0.9-1.1-0.8-1.7C123.9,5.2,115,7.8,115,7.8V5.9l-2-0.6v32.1
	l-0.1,0c-0.2,0-1.7,0.5-2,0.5c0.2,0.2,0.3,0.5,0.3,0.7c0.1,0.3,0.2,0.7,0.1,1.1c2.2-0.5,13.8-4.2,13.8-4.2s2.4,4.2,5,4.2
	c1.5,0,2.5-3.1,3.4-6.3C133.1,33.5,132.8,33.5,132.4,33.4 M21.2,13.3l0-0.3c0.1-1.5,0.2-4.7,0.3-9.9l0,0c-0.4,0.2-0.7,0.2-1.1,0.2
	c-0.4,0-0.8-0.1-1.2-0.3c0,4.5-0.2,8.1-0.3,10l0,0.3H3c0.2,0.3,0.2,0.7,0.2,1c0,0.3-0.1,0.6-0.2,0.9h15.6c0,4.9-4.6,17.3-14.9,22.8
	c0.4,0.1,0.8,0.3,1,0.6C5,39,5.1,39.4,5,39.8l0.1,0.1c8.2-5,13.2-13.2,15.3-21.7l0.1-0.6c0,0,4.8,16.2,16.1,22.1
	c0.1-0.4,0.3-0.8,0.6-1.1c0.3-0.4,0.8-0.6,1.3-0.7l0,0c-10.9-4.5-16-20.2-16.7-22.7h17.3C39,14.9,39,14.6,39,14.3
	c0-0.3,0.1-0.7,0.2-1H21.2z M240.9,3.9c-0.4-0.2-0.7-0.5-1-0.8v0c-2.4,7.4-6.5,14.9-10.5,19.3c0.4,0.1,0.8,0.2,1.2,0.5
	c0.3,0.3,0.5,0.6,0.6,1c1.6-1.9,3.1-4,4.3-6.1l0.5-0.9v23c0.4-0.2,0.7-0.3,1.1-0.3c0.4,0,0.7,0.1,1.1,0.3h0l0-26.5
	c0.7-1.6,3.8-8.8,3.9-9.1C241.8,4.1,241.3,4,240.9,3.9 M267.8,30.5c-0.2-0.3-0.3-0.6-0.3-0.9c0-0.3,0-0.6,0.2-0.8l0,0h-11.4v-8h9.4
	l0,0c-0.2-0.2-0.2-0.5-0.2-0.8c0-0.3,0.1-0.6,0.2-0.9v0h-9.4v-8.6h10.2l0,0c-0.2-0.2-0.3-0.6-0.3-0.9c0-0.3,0.1-0.7,0.2-1v0h-15.6
	c0.7-1.5,1.2-3,1.7-4.5c-0.4,0-0.7-0.1-1-0.2c-0.4-0.1-0.8-0.4-1.1-0.7c-1.9,6-4.9,11.6-8.9,16.4c0.4,0.2,0.7,0.5,1.1,0.8
	c0.3,0.2,0.5,0.5,0.7,0.8c2.9-3.4,6.3-9.9,6.7-10.6l0-0.1h4.1v29.4c0.3-0.2,0.7-0.3,1.1-0.3c0.4,0,0.8,0.1,1.1,0.3l0,0v-9.3
	L267.8,30.5L267.8,30.5z M172.1,13h-7.3V5.8h7.3C172.1,5.8,172.1,13,172.1,13z M174.1,4h-11.3v10.7h11.3L174.1,4L174.1,4z M153.5,13
	h-7.3V5.8h7.3C153.5,5.8,153.5,13,153.5,13z M155.5,4h-11.2v10.7h11.2L155.5,4L155.5,4z M171.7,36.9h-7.3V30h7.3
	C171.7,30,171.7,36.9,171.7,36.9z M147.3,30h7v6.9h-7V30z M165.3,21.1h11c-0.2-0.3-0.3-0.6-0.3-0.9c0-0.3,0.1-0.6,0.3-0.9h-18.1
	l0.2-0.3c1.1-1.3,1.9-2.3,2-2.5v0c-0.4-0.1-0.8-0.3-1.1-0.5c-0.3-0.2-0.5-0.5-0.7-0.8l0,0c-1,1.4-2,2.8-3.2,4l0,0.1h-14.3
	c0.2,0.3,0.3,0.6,0.3,0.9c0,0.3-0.1,0.6-0.3,0.9v0h12.7l-0.6,0.5c-4.2,4-12.6,6.7-12.7,6.7c0.8,0.3,1.2,1.1,1.2,1.9l3.5-1.6v11.1
	c0.3-0.2,0.6-0.3,1-0.3c0.3,0,0.7,0.1,1,0.2v-1h7v1.2c0.3-0.2,0.7-0.3,1.1-0.3c0.3,0,0.6,0.1,0.9,0.2V28.3h-10.1l1.1-0.6
	c4.2-2.3,5.9-3.2,9.2-6.2l0.4-0.3h5.8l0.1,0c2.7,2.5,5.8,4.7,9,6.5l1.1,0.6h-10.3v11.5c0.4-0.1,0.7-0.2,1.1-0.3
	c0.3,0,0.6,0.1,0.9,0.2v-1h7.3v1.1c0.6-0.3,1.4-0.3,2,0v-11l3,1.2l0,0c0-0.4,0-0.7,0.2-1c0.1-0.4,0.4-0.8,0.7-1.1l0,0
	c-5.6-1.2-10.6-5.1-12-6.4L165.3,21.1z M211,24.3l6.4-0.9c2.7-0.4,2.9-1.1,2.9-2.5V3.1c-0.3,0.1-0.7,0.2-1,0.2h-0.1
	c-0.3,0-0.7-0.1-1-0.2v17.2c0,0.7-0.1,0.9-1.3,1.1l-6.4,1c0.2,0.2,0.3,0.5,0.4,0.8C211,23.5,211,23.9,211,24.3 M195.8,13.2v2.7h-7.5
	v7.2l0,0c0.3-0.1,0.7-0.2,1-0.2c0.3,0,0.7,0.1,0.9,0.3l0,0l0,0v-5.7h5.5v6.5l0,0c0.3-0.2,0.7-0.2,1-0.2c0.3,0,0.6,0.1,0.9,0.2l0,0
	v-6.5h7.3V20c0,0.4-0.3,0.8-0.7,0.8c0,0-0.1,0-0.1,0H202c0.1,0.3,0.2,0.5,0.3,0.8c0.1,0.3,0,0.6-0.1,0.9h2.8c1,0.1,1.9-0.7,2-1.7
	c0-0.1,0-0.2,0-0.3v-4.7h-9.2v-2.7h11.1c-0.1-0.3-0.1-0.5-0.1-0.8c0-0.3,0-0.5,0.1-0.7h-11.2V8.2h8.2c-0.1-0.3-0.1-0.6-0.1-0.8
	c0-0.2,0-0.5,0.1-0.7h-8.2V3.1c-0.3,0.2-0.6,0.3-0.9,0.2c-0.3,0-0.7-0.1-1-0.3v3.6h-5l0.2-0.2c0.3-0.5,1.2-2.1,1.5-2.6l0,0
	c-0.3,0-0.7,0-0.9-0.2c-0.3-0.1-0.6-0.3-0.8-0.6l0,0c-1.1,2.2-2.3,4.2-3.8,6.2c0.3,0.1,0.6,0.2,0.8,0.3c0.3,0.2,0.6,0.4,0.7,0.7
	l1.5-2.1h5.8v3.4H186c0.1,0.5,0.1,1,0,1.5L195.8,13.2L195.8,13.2z M216.2,28.6l-0.1,0.2c-1.1,2-2.5,3.9-3.9,5.7l-0.1,0.1l-0.1-0.1
	c-2.5-1.4-4.8-4.9-5.2-5.7l-0.1-0.2L216.2,28.6L216.2,28.6z M204.6,24.3c-0.3,0.1-0.7,0.1-1,0.1h-0.1c-0.4,0-0.7,0-1.1-0.2V27h-16.5
	c0.1,0.3,0.2,0.6,0.2,0.9c0,0.3-0.1,0.5-0.2,0.8l0,0h15.4l-0.6,0.3c-4.8,2.5-9.9,4.2-15.2,5.2c0.3,0.2,0.5,0.4,0.7,0.7
	c0.2,0.3,0.3,0.7,0.3,1c2.9-0.6,5.8-1.5,8.6-2.5l0.2-0.1v4.6l-3.3,0.4c0.2,0.3,0.3,0.6,0.4,0.9c0,0.3,0,0.6-0.1,0.9l0,0l16.8-2.1
	l0,0c-0.2-0.2-0.3-0.4-0.3-0.7c0-0.3,0-0.6,0-0.9v0l-11.4,1.4v-5.1l0.1,0c0.5-0.2,2.3-1,3.7-1.8c1.1-0.6,2.2-1.3,3.2-2l0.1-0.1
	l0.1,0.2c0.6,1,5.7,10,15.9,11.2l0,0c-0.1-0.3-0.1-0.6,0-0.9c0.2-0.3,0.4-0.6,0.7-0.8l0,0c-2.7-0.3-5.3-1.2-7.6-2.6l-0.2-0.1
	l0.1-0.1c1.7-2.1,3.3-4.4,4.6-6.8l0-0.1h3.1c-0.1-0.3-0.2-0.6-0.2-0.9c0-0.3,0.1-0.5,0.2-0.7v0h-16.8V24.3z M213.3,18.5V3.2
	c-0.3,0.1-0.7,0.1-1,0.1c-0.3,0-0.7-0.1-1-0.2v15.3C212,18.2,212.7,18.2,213.3,18.5 M293.4,5.9c-0.2-0.3-0.3-0.6-0.3-0.9
	c0-0.3,0.1-0.6,0.3-0.9h-14.9c0.2,0.3,0.2,0.6,0.3,0.9c0,0.3-0.1,0.6-0.3,0.9H293.4L293.4,5.9z M290.6,21.3h-9.4v-9.4h9.4
	L290.6,21.3L290.6,21.3z M292.7,10.1h-13.5c0,7.3,0,10.8,0,11.9c-0.2,5.9-1.5,11.6-4,17l0,0c0,0,0,0,0.1,0c0.3,0,0.7,0.1,0.9,0.2
	c0.3,0.2,0.5,0.5,0.7,0.8l0,0c2.5-5.2,3.9-10.8,4.1-16.5l0-0.3h11.6V10.1z M312.7,17.6c0-0.3,0.1-0.7,0.2-1v0h-13.4V8.4
	c0,0,7.7-1.2,12.7-3.9l0,0c-0.3-0.1-0.5-0.3-0.7-0.6c-0.2-0.3-0.3-0.6-0.3-0.9v0c-3.7,1.7-7.6,2.9-11.5,3.5l-0.2,0V5.4l-2.2-0.6
	c0.1,12.6-0.1,18.3-0.7,21.1c-0.8,3.5-1.7,6.3-6.1,9.9c0.4,0.1,0.7,0.3,1,0.6c0.3,0.3,0.5,0.7,0.5,1.1l0,0
	c6.6-5.5,7.3-11.3,7.5-18.8v-0.2h6.8V40c0.3-0.2,0.7-0.3,1-0.3c0.4,0,0.7,0.1,1,0.3V18.5h4.6C312.8,18.2,312.7,17.9,312.7,17.6
	 M83.9,33.9c-0.4-0.1-0.8-0.4-1.1-0.7c-0.2,2.1-1.2,4.2-2.3,4.2c-2,0-3.5-1.8-4.7-4.6c0.2-0.3,0.4-0.5,0.7-0.8
	c2.2-2.9,4.4-7.6,6.5-13.2c-0.9,0.1-1.7-0.3-2.2-1.1c-1.5,4.5-3.2,9.1-5.6,12.3c-0.1,0.1-0.2,0.2-0.3,0.4c-1.7-5.4-2.5-13-2.7-19.3
	h11.2l0.6-0.9l-0.5-0.9h0l-0.2-0.4c-0.7-1.2-2.2-3.5-2.8-4.4l0,0c-0.1,0.4-0.4,0.7-0.8,0.8c-0.4,0.2-0.8,0.3-1.2,0.2l0,0
	c0.9,1.2,1.7,2.5,2.5,3.8h-8.8V3.1c-0.7,0.5-1.6,0.5-2.2,0c0,0.8,0,6.1,0,6.1H51.6c0,17.2-1,23.4-4.4,29.5c1,0,1.5,0.2,1.8,1.2
	c3.1-5.1,4.3-11.6,4.6-19.3l0-0.3h9.9c0,0,0,2.7,0,3.1c-0.1,3.3-0.2,6.4-0.8,7.4c-0.2,0.6-0.8,0.9-1.4,1h-6.1c0.1,0.3,0.1,0.7-0.1,1
	c-0.2,0.4-0.4,0.7-0.6,1h6.6c0.8,0,2.6-0.1,3.4-1.6c0.9-1.5,1-7.8,1.1-11.8c0,0,0-1.4,0-1.8h-12l0.1-7.5h16.3c0,0,0.1,12.8,3.2,21.3
	c-2.1,2.2-4.5,4.1-7.2,5.4c0.8,0.3,1.3,1.2,1.1,2.1c2.6-1.4,5-3.2,7-5.3c1.5,3.1,3.6,5.3,6.5,5.3c3.3,0,4.3-5.9,4.3-5.9
	C84.7,34,84.3,34,83.9,33.9"/>
</svg>
