<?xml version="1.0" encoding="utf-8"?>
<!-- Generator: Adobe Illustrator 23.0.4, SVG Export Plug-In . SVG Version: 6.00 Build 0)  -->
<svg version="1.1" id="編集モード" xmlns="http://www.w3.org/2000/svg" xmlns:xlink="http://www.w3.org/1999/xlink" x="0px"
	 y="0px" viewBox="0 0 16 124" style="enable-background:new 0 0 16 124;" xml:space="preserve">
<style type="text/css">
	.st0{fill:#967200;}
</style>
<g>
	<g>
		<path class="st0" d="M8.19,4.415l0.007-0.127C8.229,3.711,8.285,2.477,8.303,0.43l0,0c0,0-0.206,0.095-0.436,0.095
			c-0.217,0-0.427-0.107-0.456-0.122C7.394,2.171,7.349,3.569,7.287,4.308L7.279,4.415H1.098c0.056,0.102,0.085,0.24,0.083,0.387
			c-0.002,0.13-0.027,0.255-0.07,0.35h6.089c0,1.921-1.784,6.732-5.804,8.857c0.028,0.003,0.221,0.027,0.397,0.252
			c0.136,0.17,0.1,0.401,0.099,0.454l0.036,0.04c3.211-1.94,5.154-5.139,5.977-8.445l0.054-0.216c0,0,1.89,6.294,6.275,8.594
			c0.049-0.172,0.127-0.317,0.23-0.431c0.217-0.236,0.484-0.263,0.516-0.265l0,0c-4.238-1.759-6.243-7.852-6.527-8.837h0.193
			l6.564,0c-0.042-0.097-0.064-0.223-0.063-0.354c0.002-0.144,0.035-0.284,0.091-0.382H8.19z"/>
	</g>
	<g>
		<path class="st0" d="M14.651,29.88c-0.279-0.072-0.326-0.202-0.423-0.283c-0.095,0.83-0.478,1.615-0.906,1.615
			c-0.764,0-1.365-0.694-1.831-1.78c0.085-0.101,0.17-0.203,0.255-0.311c0.869-1.111,1.719-2.944,2.538-5.127
			c-0.402,0.012-0.6-0.057-0.846-0.416c-0.575,1.734-1.261,3.544-2.171,4.765c-0.037,0.05-0.079,0.097-0.119,0.146
			c-0.653-2.099-0.96-5.049-1.043-7.508h4.358l0.235-0.357l-0.189-0.365h-0.003l-0.087-0.167c-0.264-0.485-0.848-1.358-1.085-1.694
			v0l0,0c0,0.001-0.025,0.184-0.293,0.298c-0.187,0.107-0.452,0.095-0.474,0.093l-0.002,0c0.301,0.371,0.727,1.057,0.975,1.47
			h-3.436v-2.355c-0.16,0.143-0.575,0.222-0.854-0.018c-0.004,0.298,0,2.373,0,2.373H2.015c0,6.703-0.373,9.096-1.705,11.451
			c0.398,0.015,0.604,0.088,0.703,0.459c1.204-1.985,1.668-4.492,1.811-7.486L2.83,24.57h3.868c0,0-0.004,1.062-0.009,1.219
			c-0.034,1.293-0.083,2.486-0.297,2.881c-0.096,0.167-0.215,0.37-0.533,0.37H3.48c0.035,0.157,0.023,0.27-0.032,0.397
			c-0.093,0.21-0.253,0.378-0.253,0.378s2.27,0,2.565,0c0.296,0,1.021-0.034,1.324-0.616c0.352-0.602,0.396-3.013,0.437-4.593
			c0,0,0.014-0.555,0.019-0.713H2.857l0.02-2.912h6.373c0,0,0.024,4.96,1.25,8.274c-0.688,0.768-1.847,1.654-2.825,2.108
			c0,0,0.51,0.162,0.436,0.805c1.01-0.52,1.922-1.21,2.752-2.061c0.598,1.219,1.416,2.061,2.539,2.061c1.28,0,1.68-2.294,1.68-2.294
			C15.087,29.876,14.9,29.944,14.651,29.88z"/>
	</g>
	<g>
		<path class="st0" d="M2.133,46.182c-0.156-0.024-0.29-0.077-0.367-0.146c-0.223,1.396-0.626,3.052-0.929,4.137v0.001
			c0.014-0.001,0.028-0.002,0.042-0.002c0.084,0,0.183,0.016,0.278,0.044c0.181,0.052,0.329,0.143,0.374,0.23h0
			c0.327-1.086,0.753-3.121,0.931-4.268C2.369,46.2,2.248,46.2,2.133,46.182z"/>
		<path class="st0" d="M5.342,46.059c-0.096,0.009-0.181,0.006-0.274-0.011c0.067,0.628,0.229,1.521,0.397,2.173
			c0.075-0.055,0.186-0.102,0.311-0.131c0.133-0.031,0.271-0.034,0.364-0.008c-0.159-0.645-0.324-1.513-0.41-2.159
			C5.656,45.99,5.508,46.042,5.342,46.059z"/>
		<path class="st0" d="M5.223,42.054c-0.13,0.052-0.263,0.078-0.362,0.067l0.554,1.266l-2.267,0.231l0.063-0.108
			c0.608-1.04,2.089-3.587,2.728-4.758c-0.108-0.017-0.223-0.051-0.332-0.097c-0.199-0.083-0.369-0.198-0.433-0.292l-1.815,3.227
			l-1.094-0.781l0.025-0.049c0.2-0.399,0.702-1.395,1.041-2.029l0.013-0.024c0.44-0.826,0.887-1.667,1.133-2.215L4.42,36.481
			c-0.101-0.016-0.24-0.038-0.337-0.079c-0.153-0.065-0.28-0.211-0.304-0.239l-2.159,4.233l-0.696-0.393v0.001
			c-0.018,0.12-0.091,0.289-0.195,0.453c-0.053,0.084-0.112,0.159-0.178,0.23h0c0.875,0.446,1.91,1.153,2.357,1.493l0.078,0.06
			l-0.816,1.458l-0.033,0.003l-1.926,0.195c0.008,0.024,0.019,0.049,0.03,0.074c0.04,0.092,0.079,0.182,0.091,0.281
			c0.017,0.118-0.001,0.25-0.015,0.357c-0.005,0.033-0.008,0.059-0.011,0.081c0.3-0.04,1.715-0.228,2.529-0.336l0.58-0.077
			l0.001,6.147c0.086-0.05,0.224-0.08,0.37-0.08c0.199,0,0.336,0.05,0.398,0.097V44.2l1.442-0.192l0.452,1.127
			c0.066-0.072,0.176-0.143,0.301-0.195c0.144-0.058,0.297-0.084,0.393-0.062c-0.257-0.7-0.812-2.048-1.261-3.005
			C5.445,41.94,5.341,42.005,5.223,42.054z"/>
		<path class="st0" d="M15.337,47.956c-0.169-0.069-0.338-0.244-0.357-0.264c0,0-0.286,1.709-0.709,1.709
			c-0.67,0-1.897-1.67-2.033-5.781l-0.009-0.127l2.681,0c-0.002-0.003-0.092-0.142-0.092-0.368c0-0.218,0.073-0.342,0.08-0.354
			h-2.708c0,0-0.018-0.98-0.043-1.832c-0.032-1.049-0.055-3.253-0.055-3.253s2.355-0.77,2.517-0.818
			c-0.254-0.146-0.353-0.398-0.315-0.679c-2.28,0.817-5.748,1.808-5.748,1.808v-0.743L7.777,37.04v12.478l-0.047,0.013
			c-0.069,0.019-0.674,0.188-0.781,0.204c0.054,0.07,0.082,0.134,0.123,0.285c0.047,0.17,0.068,0.335,0.052,0.421
			c0.843-0.187,5.398-1.622,5.398-1.622s0.936,1.622,1.937,1.622c0.589,0,0.979-1.214,1.328-2.457
			C15.75,47.99,15.409,47.985,15.337,47.956z M8.546,38.704l2.753-0.81l0.115,4.876H8.546V38.704z M8.546,49.339v-5.846h2.904
			l0.007,0.111c0.089,1.434,0.267,3.073,0.691,4.362c0.016,0.043,0.042,0.104,0.066,0.161l0.042,0.101L8.546,49.339z"/>
	</g>
	<g>
		<path class="st0" d="M13.839,54.627H9.444v4.168h4.395V54.627z M13.069,58.105h-2.84v-2.801h2.84V58.105z"/>
		<path class="st0" d="M6.593,54.627H2.224v4.168h4.369V54.627z M5.825,58.105H2.992v-2.801h2.833V58.105z"/>
		<path class="st0" d="M10.407,61.282l4.278,0c0,0-0.114-0.16-0.114-0.36c0-0.193,0.097-0.322,0.104-0.331H7.623l0.091-0.105
			c0.428-0.497,0.725-0.909,0.78-0.986l0.001-0.002c0,0-0.232-0.049-0.423-0.192c-0.178-0.133-0.251-0.279-0.261-0.3v0
			c-0.518,0.783-1.124,1.441-1.24,1.564l-0.019,0.02H0.977c0.026,0.039,0.102,0.169,0.102,0.334c0,0.213-0.09,0.341-0.1,0.355
			l-0.002,0.002h4.969l-0.219,0.209c-1.623,1.537-4.902,2.588-4.946,2.603c0.449,0.183,0.472,0.617,0.468,0.746l1.353-0.626v4.319
			C2.687,68.47,2.799,68.406,3,68.406c0.133,0,0.293,0.029,0.388,0.069v-0.403h2.745v0.468c0.044-0.024,0.257-0.134,0.432-0.134
			c0.117,0,0.259,0.024,0.353,0.059v-4.407H2.976l0.409-0.224c1.622-0.893,2.288-1.256,3.593-2.425l0.139-0.125H9.37l0.019,0.019
			c0.181,0.184,1.824,1.675,3.529,2.531l0.423,0.225H9.31v4.452c0.002-0.001,0.265-0.104,0.432-0.104
			c0.117,0,0.231,0.022,0.337,0.066v-0.401h2.841v0.418c0.209-0.108,0.587-0.101,0.784,0.014v-4.279l1.18,0.466v0
			c-0.002-0.003-0.014-0.176,0.06-0.406c0.085-0.264,0.253-0.403,0.272-0.418l0.002-0.001c-2.173-0.475-4.137-1.978-4.687-2.471
			L10.407,61.282z M3.388,64.735h2.745v2.677H3.388V64.735z M12.92,67.411h-2.841v-2.677h2.841V67.411z"/>
	</g>
	<g>
		<path class="st0" d="M10.911,80.922l2.503-0.36c1.04-0.15,1.149-0.414,1.149-0.981v-6.896c-0.1,0.039-0.241,0.062-0.388,0.062
			l-0.021,0c-0.134-0.001-0.267-0.022-0.376-0.06v6.672c0,0.274-0.048,0.347-0.527,0.436l-2.506,0.375
			c0.07,0.084,0.101,0.17,0.143,0.329C10.926,80.646,10.934,80.801,10.911,80.922z"/>
		<path class="st0" d="M4.994,76.608v1.051H2.077v2.813l0,0c0.004-0.004,0.165-0.08,0.389-0.08c0.181,0,0.316,0.063,0.363,0.098
			l0-0.001l0,0v-2.214h2.163v2.515l0,0c0.008-0.006,0.17-0.087,0.39-0.087c0.216,0,0.348,0.08,0.363,0.089l0.002,0.001v-2.519h2.844
			v0.994c0,0.196-0.121,0.318-0.315,0.318H7.406c0.053,0.067,0.102,0.259,0.115,0.316c0.048,0.2-0.043,0.339-0.046,0.345l-0.001,0
			h1.11c0.706,0,0.761-0.589,0.761-0.77v-1.82H5.748v-1.051h4.35c-0.017-0.065-0.037-0.171-0.034-0.309
			c0-0.101,0.013-0.199,0.038-0.291H5.748v-1.312h3.205c-0.026-0.087-0.04-0.202-0.039-0.326c0-0.092,0.012-0.181,0.035-0.273H5.748
			v-1.399l0,0.001c-0.002,0.004-0.152,0.096-0.371,0.096c-0.195,0-0.366-0.1-0.383-0.11v1.413H3.042L3.102,74
			c0.112-0.184,0.485-0.8,0.594-1.022h0c-0.004,0-0.158,0.02-0.37-0.068c-0.12-0.05-0.258-0.171-0.312-0.221l-0.003-0.003v0
			c-0.36,0.764-0.83,1.526-1.48,2.399c0.002,0,0.202,0.055,0.325,0.126c0.223,0.115,0.287,0.275,0.291,0.284l0.588-0.799h2.26v1.312
			H1.172c0.023,0.088,0.036,0.19,0.035,0.296c-0.002,0.137-0.024,0.241-0.043,0.304H4.994z"/>
		<path class="st0" d="M8.438,80.922c-0.105,0.03-0.248,0.047-0.404,0.047l-0.028,0c-0.166-0.002-0.324-0.023-0.432-0.058v1.083
			H1.136c0.015,0.029,0.079,0.17,0.079,0.334c0,0.177-0.073,0.289-0.076,0.294l-0.001,0.001h6.015l-0.218,0.12
			c-0.575,0.315-2.701,1.393-5.932,2.032c0.002,0.002,0.164,0.115,0.274,0.265c0.106,0.144,0.117,0.375,0.118,0.397
			c1.914-0.434,3.055-0.849,3.359-0.966l0.087-0.033v1.774l-1.295,0.159c0.023,0.03,0.127,0.174,0.142,0.336
			c0.015,0.156-0.006,0.281-0.03,0.331l0.001,0l6.548-0.827l0,0c-0.027-0.027-0.109-0.12-0.136-0.278
			c-0.019-0.113,0.004-0.269,0.019-0.352l0.001-0.006l-4.466,0.559v-1.991l0.038-0.017c0.198-0.087,0.891-0.394,1.458-0.694
			c0.53-0.28,1.041-0.637,1.237-0.778l0.059-0.042l0.034,0.064c0.216,0.397,2.226,3.891,6.214,4.364l-0.001,0
			c-0.013-0.028-0.073-0.17,0.014-0.353c0.093-0.197,0.279-0.291,0.287-0.295l0.001,0c-0.353-0.025-1.886-0.268-2.962-0.999
			l-0.059-0.04l0.046-0.054c0.244-0.291,1.094-1.341,1.78-2.64l0.018-0.034l1.19,0c-0.002-0.001-0.069-0.156-0.069-0.336
			c0-0.17,0.074-0.279,0.082-0.291l0.002-0.002H8.438V80.922z M12.972,82.624l-0.055,0.096c-0.272,0.473-0.833,1.39-1.531,2.216
			l-0.034,0.041l-0.046-0.027c-0.983-0.563-1.866-1.92-2.016-2.234l-0.043-0.091H12.972z"/>
		<path class="st0" d="M11.832,78.671v-5.937c-0.101,0.036-0.237,0.055-0.394,0.055c-0.147-0.001-0.285-0.024-0.392-0.064v5.946
			C11.271,78.585,11.612,78.585,11.832,78.671z"/>
	</g>
	<g>
		<path class="st0" d="M4.976,91.326C4.753,91.23,4.624,91.038,4.6,91l-0.002-0.002c-0.951,2.858-2.523,5.788-4.083,7.516
			c0,0,0.302,0.04,0.465,0.181c0.122,0.105,0.239,0.379,0.241,0.382c0.729-0.881,1.284-1.66,1.696-2.381l0.209-0.365v8.938
			c0.006-0.003,0.219-0.117,0.445-0.117c0.2,0,0.368,0.079,0.415,0.103l0.003,0.002l0.017-10.302
			c0.29-0.621,1.467-3.416,1.523-3.545C5.53,91.41,5.125,91.391,4.976,91.326z"/>
		<path class="st0" d="M15.484,101.682c-0.019-0.024-0.106-0.145-0.106-0.355c0-0.205,0.062-0.311,0.074-0.331l0.003-0.004h-4.436
			v-3.125l3.675,0l-0.009-0.016c-0.017-0.02-0.092-0.139-0.092-0.323c0-0.192,0.065-0.325,0.078-0.35l0.001-0.003h-3.653v-3.333
			h3.984l0-0.001c-0.012-0.01-0.119-0.111-0.119-0.347c0-0.23,0.087-0.358,0.097-0.372l0.001-0.002H8.874
			c0.473-1.094,0.647-1.746,0.653-1.761c-0.113-0.003-0.257-0.035-0.405-0.09c-0.201-0.075-0.374-0.181-0.442-0.271
			c-0.669,2.369-2.25,5.009-3.457,6.384c0.074,0.031,0.216,0.138,0.414,0.311c0.132,0.113,0.212,0.222,0.256,0.294
			c1.139-1.314,2.472-3.839,2.625-4.112l0.019-0.033h1.62v11.438c0,0,0.189-0.135,0.449-0.135c0.247,0,0.397,0.121,0.413,0.134
			l0.001,0.001l-0.001-3.598L15.484,101.682L15.484,101.682z"/>
	</g>
	<g>
		<path class="st0" d="M7.746,110.33c0,0-0.106-0.178-0.106-0.363c0-0.179,0.106-0.348,0.113-0.359l-5.81,0
			c0.001,0.001,0.099,0.17,0.099,0.363c0,0.183-0.096,0.344-0.106,0.359L7.746,110.33z"/>
		<path class="st0" d="M7.457,111.961H2.184c0,2.857,0,4.218-0.016,4.629c0,3.422-1.539,6.577-1.554,6.603v0
			c0,0,0.015-0.001,0.034-0.001c0.084,0,0.242,0.012,0.368,0.09c0.159,0.098,0.266,0.279,0.279,0.302l0,0
			c0.612-1.176,1.446-3.507,1.612-6.397l0.006-0.111h4.543V111.961z M6.642,116.321H2.969v-3.637h3.673V116.321z"/>
		<path class="st0" d="M15.266,114.877c0-0.144,0.065-0.31,0.093-0.374l0.002-0.004h-5.213v-3.175c0,0,2.998-0.48,4.977-1.498h0l0,0
			c0,0-0.148-0.053-0.273-0.218c-0.082-0.11-0.112-0.293-0.121-0.367v-0.004c-0.079,0.038-1.726,0.884-4.508,1.369l-0.075,0.013
			v-0.465l-0.844-0.223c0.03,4.885-0.031,7.124-0.285,8.189c-0.31,1.376-0.664,2.457-2.394,3.831
			c0.113,0.042,0.272,0.118,0.385,0.238c0.189,0.2,0.206,0.39,0.208,0.41v0c2.585-2.144,2.844-4.379,2.927-7.302l0.002-0.062h2.642
			v8.363c0.001-0.001,0.181-0.116,0.41-0.116c0.227,0,0.401,0.113,0.405,0.116v-8.362l1.781,0
			C15.373,115.218,15.266,115.08,15.266,114.877z"/>
	</g>
</g>
</svg>
